# xmcd CD database file
#
# Track frame offsets:
#	150
#	18550
#	39055
#	61256
#	82372
#	101237
#	123557
#	141206
#	160377
#	178081
#	196918
#	211360
#	233447
#	237580
#	257484
#	275094
#	298844
#	300810
#	304322
#
# Disc length: 4359 seconds
#
# Revision: 2
# Processed by: cddbd v1.5.2PL0 Copyright (c) Steve Scherf et al.
# Submitted via: CDex 1.50
#
DISCID=16110513
DTITLE=Brad Paisley - 5th Gear
DYEAR=2008
DGENRE=Country
TTITLE0=All I Wanted Was A Car
TTITLE1=Ticks
TTITLE2=Online
TTITLE3=Letter To Me
TTITLE4=I'm Still A Guy
TTITLE5=Some Mistakes
TTITLE6=It Did
TTITLE7=Mr. Policeman
TTITLE8=If Love Was A Plane
TTITLE9=Oh Love
TTITLE10=Better Than This
TTITLE11=With You, Without You
TTITLE12=Previously...
TTITLE13=Bigger Fish To Fry
TTITLE14=When We All Get To Heaven
TTITLE15=Throttleneck
TTITLE16=Outtake #1
TTITLE17=Outtake #2
TTITLE18=Waitin' On A Woman
EXTD=YEAR: 2008
EXTT0=
EXTT1=
EXTT2=
EXTT3=
EXTT4=
EXTT5=
EXTT6=
EXTT7=
EXTT8=
EXTT9=
EXTT10=
EXTT11=
EXTT12=
EXTT13=
EXTT14=
EXTT15=
EXTT16=
EXTT17=
EXTT18=
PLAYORDER=
